<svg width="500" height="94" viewBox="0 0 500 94" fill="none" xmlns="http://www.w3.org/2000/svg">
    <path d="M39.368 33.816C39.4533 33.9867 39.5387 34.1147 39.624 34.2C39.7093 34.2 39.752 34.2853 39.752 34.456C39.752 34.968 38.6853 35.9493 36.552 37.4C34.4187 38.7653 31.7733 40.344 28.616 42.136C25.4587 43.8427 22.1307 45.592 18.632 47.384C15.1333 49.0907 12.0187 50.4987 9.288 51.608C9.288 51.7787 9.20267 52.3333 9.032 53.272C8.86133 54.2107 8.776 54.808 8.776 55.064V57.496C8.776 59.4587 9.07467 61.4213 9.672 63.384C10.2693 65.2613 11.1653 66.968 12.36 68.504C13.64 70.04 15.176 71.2773 16.968 72.216C18.76 73.1547 20.8507 73.624 23.24 73.624C24.264 73.624 25.5013 73.4533 26.952 73.112C28.488 72.6853 29.9387 72.1307 31.304 71.448C32.7547 70.68 34.0347 69.784 35.144 68.76C36.2533 67.736 36.936 66.584 37.192 65.304C38.216 65.3893 38.8133 65.688 38.984 66.2C39.24 66.712 39.368 67.0533 39.368 67.224C39.368 69.4427 38.8133 71.3627 37.704 72.984C36.68 74.52 35.3573 75.8 33.736 76.824C32.2 77.7627 30.536 78.488 28.744 79C27.0373 79.4267 25.5013 79.64 24.136 79.64C16.7973 79.64 11.464 77.592 8.136 73.496C4.808 69.4 3.144 64.024 3.144 57.368C3.144 57.0267 3.22933 56.2587 3.4 55.064C3.57067 53.8693 3.656 53.0587 3.656 52.632C3.656 52.5467 3.48533 52.4613 3.144 52.376C2.80267 52.2053 2.41867 52.0347 1.992 51.864C1.65067 51.6933 1.30933 51.4373 0.968 51.096C0.712 50.6693 0.584 50.1147 0.584 49.432C0.584 48.7493 0.84 48.1947 1.352 47.768C1.864 47.3413 2.46133 46.9573 3.144 46.616L4.424 45.848C5.192 42.6053 6.088 39.4907 7.112 36.504C8.22133 33.432 9.58667 30.36 11.208 27.288C10.5253 27.288 9.8 27.2027 9.032 27.032C8.264 26.8613 7.88 26.264 7.88 25.24C7.88 24.0453 8.56267 22.7227 9.928 21.272C11.3787 19.8213 13 18.456 14.792 17.176C16.6693 15.896 18.504 14.8293 20.296 13.976C22.088 13.0373 23.368 12.568 24.136 12.568C24.4773 12.568 24.6907 12.6533 24.776 12.824C24.9467 12.9093 25.2027 12.952 25.544 12.952C26.2267 12.952 27.08 12.824 28.104 12.568C29.2133 12.312 30.3653 12.0133 31.56 11.672C32.7547 11.3307 33.864 11.032 34.888 10.776C35.9973 10.52 36.8933 10.392 37.576 10.392C38.344 10.392 38.8987 10.648 39.24 11.16C39.6667 11.672 39.88 12.2267 39.88 12.824C39.88 13.5067 39.4533 14.0187 38.6 14.36C37.7467 14.616 36.9787 14.8293 36.296 15C33.9067 15.4267 31.3893 16.1947 28.744 17.304C26.184 18.328 23.7947 19.48 21.576 20.76C20.7227 21.6987 19.6987 23.064 18.504 24.856C17.3093 26.5627 16.1573 28.5253 15.048 30.744C13.9387 32.9627 12.9147 35.2667 11.976 37.656C11.1227 40.0453 10.568 42.3067 10.312 44.44L12.488 43.416C19.0587 40.2587 24.392 37.784 28.488 35.992C32.6693 34.2 35.912 33.304 38.216 33.304C38.6427 33.304 39.0267 33.4747 39.368 33.816ZM74.202 33.944C74.202 34.2 73.9887 35.3093 73.562 37.272C73.1353 39.2347 72.7087 41.4533 72.282 43.928C72.026 45.3787 71.5993 47.5547 71.002 50.456C70.49 53.272 70.234 57.5813 70.234 63.384C70.234 63.5547 70.1913 64.024 70.106 64.792C70.106 65.4747 69.978 66.2 69.722 66.968C69.5513 67.736 69.2527 68.4613 68.826 69.144C68.3993 69.7413 67.7593 70.04 66.906 70.04C66.138 70.04 65.2847 69.6987 64.346 69.016C62.2127 67.48 60.25 65.688 58.458 63.64C56.666 61.592 55.13 59.3733 53.85 56.984C52.57 54.5093 51.5887 51.9493 50.906 49.304C50.2233 46.6587 49.882 43.9707 49.882 41.24C49.882 40.8987 50.0953 40.6 50.522 40.344C51.034 40.0027 51.418 39.832 51.674 39.832C52.954 39.832 53.9353 40.5573 54.618 42.008C55.386 43.4587 56.1113 45.208 56.794 47.256C57.562 49.304 58.4153 51.48 59.354 53.784C60.378 56.0027 61.8713 57.9227 63.834 59.544C64.09 59.2027 64.3033 58.5627 64.474 57.624C64.6447 56.6853 64.7727 55.8747 64.858 55.192C64.9433 54.5947 65.0713 53.4427 65.242 51.736C65.4127 49.944 65.5833 48.0667 65.754 46.104C66.01 44.1413 66.1807 42.264 66.266 40.472C66.4367 38.68 66.522 37.4427 66.522 36.76C66.522 36.248 66.5647 35.6507 66.65 34.968C66.7353 34.2853 66.906 33.6453 67.162 33.048C67.5033 32.4507 67.93 31.9387 68.442 31.512C68.954 31.0853 69.6367 30.872 70.49 30.872C70.9167 30.872 71.642 31.1707 72.666 31.768C73.69 32.28 74.202 33.0053 74.202 33.944ZM121.079 65.56C121.164 65.7307 121.207 65.9867 121.207 66.328C121.207 66.84 120.823 67.608 120.055 68.632C119.799 68.9733 119.244 69.528 118.391 70.296C117.538 71.064 116.386 71.832 114.935 72.6C113.484 73.368 111.692 74.0507 109.559 74.648C107.511 75.2453 105.079 75.544 102.263 75.544C100.3 75.544 98.3803 75.1173 96.503 74.264C94.6257 73.3253 92.9617 72.0027 91.511 70.296C90.0603 68.504 88.8657 66.328 87.927 63.768C86.9883 61.1227 86.519 58.0507 86.519 54.552C86.519 51.224 86.9457 48.1093 87.799 45.208C88.6523 42.3067 89.719 39.7467 90.999 37.528C92.3643 35.3093 93.8577 33.56 95.479 32.28C97.1003 31 98.679 30.36 100.215 30.36C101.58 30.36 102.946 30.6587 104.311 31.256C105.762 31.768 107.042 32.4507 108.151 33.304C109.346 34.1573 110.284 35.1387 110.967 36.248C111.65 37.272 111.991 38.3387 111.991 39.448C111.991 40.728 111.394 42.0507 110.199 43.416C109.09 44.7813 107.724 46.0613 106.103 47.256C104.482 48.3653 102.86 49.304 101.239 50.072C99.6177 50.7547 98.3377 51.096 97.399 51.096C96.887 51.096 96.4177 50.8827 95.991 50.456C95.6497 49.944 95.479 49.3467 95.479 48.664C95.479 47.4693 95.991 46.5307 97.015 45.848C98.1243 45.1653 99.319 44.568 100.599 44.056C101.879 43.4587 103.031 42.776 104.055 42.008C105.164 41.24 105.719 40.1733 105.719 38.808C105.719 38.6373 105.506 38.2107 105.079 37.528C104.652 36.8453 103.5 36.504 101.623 36.504C100.77 36.504 99.7883 37.016 98.679 38.04C97.5697 38.9787 96.503 40.3013 95.479 42.008C94.455 43.6293 93.6017 45.592 92.919 47.896C92.2363 50.1147 91.895 52.5467 91.895 55.192C91.895 57.4107 92.279 59.416 93.047 61.208C93.9003 63 94.967 64.536 96.247 65.816C97.527 67.0107 99.0203 67.9493 100.727 68.632C102.434 69.3147 104.183 69.656 105.975 69.656C107.255 69.656 108.62 69.4 110.071 68.888C111.607 68.2907 113.015 67.6933 114.295 67.096C115.66 66.4133 116.812 65.816 117.751 65.304C118.775 64.7067 119.415 64.408 119.671 64.408C119.927 64.408 120.183 64.536 120.439 64.792C120.78 65.048 120.994 65.304 121.079 65.56ZM168.52 63.256C168.52 63.768 168.349 64.28 168.008 64.792C167.667 65.304 167.24 65.7733 166.728 66.2C166.301 66.6267 165.789 67.0107 165.192 67.352C164.68 67.608 164.211 67.736 163.784 67.736C162.333 67.736 160.456 67.4373 158.152 66.84C155.933 66.1573 154.141 65.1333 152.776 63.768C151.325 62.3173 150.045 60.6107 148.936 58.648C147.827 56.6 146.589 53.6133 145.224 49.688C144.285 53.4427 143.176 57.1547 141.896 60.824C140.701 64.4933 138.739 67.864 136.008 70.936C135.837 71.1067 135.581 71.192 135.24 71.192C134.643 71.192 134.003 70.8933 133.32 70.296C132.637 69.6987 132.296 69.1013 132.296 68.504C132.296 67.9067 132.211 66.5413 132.04 64.408C131.955 62.1893 131.827 59.7573 131.656 57.112C131.485 54.3813 131.315 51.6507 131.144 48.92C131.059 46.104 131.016 43.8 131.016 42.008C131.016 41.1547 131.059 40.0453 131.144 38.68C131.229 37.2293 131.485 35.992 131.912 34.968C131.997 34.7973 132.296 34.456 132.808 33.944C133.405 33.432 134.045 33.176 134.728 33.176C135.325 33.176 135.667 33.56 135.752 34.328C135.837 35.096 135.88 35.9493 135.88 36.888V57.112C135.88 57.5387 135.923 58.136 136.008 58.904C136.179 59.672 136.392 60.2267 136.648 60.568C137.587 58.52 138.44 56.1307 139.208 53.4C140.061 50.584 140.872 47.9387 141.64 45.464C142.408 42.904 143.176 40.7707 143.944 39.064C144.712 37.272 145.48 36.376 146.248 36.376C147.101 36.376 147.784 36.5467 148.296 36.888C148.808 37.2293 149.235 37.912 149.576 38.936C150.003 41.4107 150.344 43.6293 150.6 45.592C150.856 47.4693 151.155 49.176 151.496 50.712C151.923 52.248 152.477 53.6987 153.16 55.064C153.928 56.344 154.952 57.5387 156.232 58.648C157.427 59.7573 158.749 60.568 160.2 61.08C161.736 61.592 163.059 61.848 164.168 61.848C164.68 61.848 165.235 61.7627 165.832 61.592C166.429 61.336 166.856 61.208 167.112 61.208C167.453 61.208 167.752 61.5067 168.008 62.104C168.349 62.7013 168.52 63.0853 168.52 63.256ZM209.04 21.144C207.931 22.424 206.352 23.704 204.304 24.984C202.256 26.1787 200.208 27.288 198.16 28.312C196.112 29.336 194.32 30.232 192.784 31C191.248 31.6827 190.48 32.152 190.48 32.408C190.48 32.664 190.651 33.432 190.992 34.712C191.333 35.992 191.717 37.528 192.144 39.32C192.656 41.0267 193.168 42.8187 193.68 44.696C194.192 46.5733 194.619 48.2373 194.96 49.688C195.131 50.5413 195.344 51.6507 195.6 53.016C195.856 54.3813 196.069 55.7467 196.24 57.112C196.496 58.4773 196.709 59.7147 196.88 60.824C197.051 61.848 197.136 62.4027 197.136 62.488C197.136 63.768 196.923 65.0907 196.496 66.456C196.069 67.8213 195.387 68.504 194.448 68.504C193.936 68.504 193.467 68.2907 193.04 67.864C192.613 67.4373 192.229 66.968 191.888 66.456C191.547 65.8587 191.291 65.304 191.12 64.792C190.949 64.28 190.864 63.896 190.864 63.64C190.864 63.4693 190.864 63.2133 190.864 62.872C190.949 62.5307 190.992 62.1467 190.992 61.72C190.992 60.0987 190.736 57.752 190.224 54.68C190.053 53.7413 189.712 52.2907 189.2 50.328C188.688 48.3653 188.176 46.36 187.664 44.312C187.067 41.9227 186.384 39.32 185.616 36.504C185.275 35.3093 185.061 34.712 184.976 34.712C184.379 34.712 183.355 35.096 181.904 35.864C180.539 36.5467 178.96 37.4427 177.168 38.552C175.376 39.576 173.499 40.728 171.536 42.008C169.573 43.2027 167.739 44.3547 166.032 45.464C164.325 46.488 162.875 47.384 161.68 48.152C160.4 48.8347 159.632 49.176 159.376 49.176C158.267 49.176 157.371 48.792 156.688 48.024C156.005 47.256 155.664 46.4027 155.664 45.464C155.664 44.952 156.389 44.2267 157.84 43.288C159.205 42.264 160.955 41.1547 163.088 39.96C165.136 38.7653 167.397 37.528 169.872 36.248C172.261 34.968 174.48 33.816 176.528 32.792C178.661 31.768 180.411 30.9147 181.776 30.232C183.227 29.5493 183.952 29.208 183.952 29.208C183.184 25.2827 182.544 21.784 182.032 18.712C181.605 16.0667 181.179 13.6347 180.752 11.416C180.411 9.19733 180.24 8.00266 180.24 7.83199C180.24 6.72266 180.453 5.912 180.88 5.39999C181.392 4.80266 181.947 4.504 182.544 4.504C183.483 4.504 184.08 5.144 184.336 6.424C185.275 11.032 186.128 15.128 186.896 18.712C187.749 22.296 188.56 25.1973 189.328 27.416C190.096 27.2453 191.419 26.776 193.296 26.008C195.173 25.1547 197.136 24.2587 199.184 23.32C201.232 22.3813 203.067 21.5707 204.688 20.888C206.395 20.12 207.376 19.736 207.632 19.736C208.144 19.736 208.443 19.9067 208.528 20.248C208.699 20.5893 208.869 20.888 209.04 21.144ZM277.307 85.912C277.478 86.424 277.648 86.8933 277.819 87.32C277.99 87.7467 278.118 88.216 278.203 88.728C278.374 89.24 278.459 89.7093 278.459 90.136C278.459 90.7333 278.246 91.2027 277.819 91.544C277.392 91.9707 276.88 92.312 276.283 92.568C275.771 92.824 275.259 92.9947 274.747 93.08C274.235 93.1653 273.936 93.208 273.851 93.208C273.339 93.208 272.4 91.6293 271.035 88.472C269.67 85.4 268.176 81.048 266.555 75.416C265.019 69.784 263.44 63.0853 261.819 55.32C260.198 47.5547 258.875 39.0213 257.851 29.72C257.68 31.6827 257.339 33.9867 256.827 36.632C256.4 39.192 255.718 41.624 254.779 43.928C253.84 46.232 252.603 48.1947 251.067 49.816C249.616 51.352 247.739 52.12 245.435 52.12C243.814 52.12 241.979 51.2667 239.931 49.56C237.883 47.8533 235.878 45.848 233.915 43.544C232.038 41.1547 230.288 38.7653 228.667 36.376C227.131 33.9013 225.979 31.896 225.211 30.36C225.552 34.1147 226.107 38.6373 226.875 43.928C227.728 49.2187 229.008 54.808 230.715 60.696C230.886 61.2933 231.056 61.7627 231.227 62.104C231.483 62.36 231.696 62.6587 231.867 63C232.123 63.3413 232.294 63.7253 232.379 64.152C232.55 64.4933 232.635 65.048 232.635 65.816C232.635 66.9253 232.208 67.736 231.355 68.248C230.502 68.76 229.691 69.016 228.923 69.016C228.496 69.016 227.942 68.376 227.259 67.096C226.576 65.7307 225.851 63.9813 225.083 61.848C224.315 59.7147 223.547 57.368 222.779 54.808C222.011 52.1627 221.286 49.56 220.603 47C220.006 44.44 219.494 42.0507 219.067 39.832C218.64 37.528 218.427 35.6933 218.427 34.328C218.427 32.1093 218.512 30.5733 218.683 29.72C218.939 28.8667 219.28 28.2267 219.707 27.8V19.992C219.707 18.7973 220.006 17.9013 220.603 17.304C221.286 16.6213 222.139 16.28 223.163 16.28C224.016 16.28 224.998 17.0053 226.107 18.456C227.216 19.9067 228.411 21.7413 229.691 23.96C231.056 26.1787 232.464 28.568 233.915 31.128C235.366 33.688 236.774 36.0773 238.139 38.296C239.59 40.5147 240.955 42.3493 242.235 43.8C243.6 45.2507 244.88 45.976 246.075 45.976C247.184 45.976 248.251 44.952 249.275 42.904C250.299 40.7707 251.238 37.9973 252.091 34.584C253.03 31.1707 253.84 27.288 254.523 22.936C255.206 18.584 255.76 14.1467 256.187 9.62399C256.187 9.11199 256.144 8.55733 256.059 7.96C255.974 7.27733 255.931 6.552 255.931 5.784C255.931 4.75999 256.144 3.65066 256.571 2.45599C257.083 1.26133 258.022 0.663994 259.387 0.663994C260.155 0.663994 260.752 0.877327 261.179 1.30399C261.691 1.73066 262.032 2.28533 262.203 2.96799C262.374 3.56533 262.459 4.20533 262.459 4.88799C262.544 5.48533 262.587 5.99733 262.587 6.424C262.587 7.10666 262.502 8.25866 262.331 9.88C262.246 11.416 262.203 13.8053 262.203 17.048C262.203 19.864 262.416 23.1493 262.843 26.904C263.27 30.5733 263.824 34.4987 264.507 38.68C265.275 42.776 266.128 47.0427 267.067 51.48C268.091 55.832 269.158 60.0987 270.267 64.28C271.462 68.4613 272.614 72.4293 273.723 76.184C274.918 79.8533 276.112 83.096 277.307 85.912ZM342.42 52.376C342.42 53.912 341.695 55.832 340.244 58.136C338.879 60.3547 337.001 62.5307 334.612 64.664C332.223 66.7973 329.449 68.632 326.292 70.168C323.135 71.6187 319.849 72.344 316.436 72.344C314.9 72.344 313.279 72.088 311.572 71.576C309.865 71.064 308.201 70.3387 306.58 69.4C304.959 68.376 303.508 67.1813 302.228 65.816C300.948 64.3653 300.009 62.744 299.412 60.952C298.9 61.464 298.26 62.3173 297.492 63.512C296.809 64.7067 296.041 65.944 295.188 67.224C294.335 68.4187 293.396 69.4853 292.372 70.424C291.348 71.2773 290.281 71.704 289.172 71.704C288.063 71.704 287.124 71.1493 286.356 70.04C285.673 68.8453 285.119 67.5653 284.692 66.2C284.265 64.7493 283.967 63.384 283.796 62.104C283.625 60.824 283.54 60.0987 283.54 59.928C283.54 58.904 283.839 56.984 284.436 54.168C285.033 51.2667 285.929 48.28 287.124 45.208C288.319 42.136 289.812 39.4053 291.604 37.016C293.481 34.6267 295.657 33.432 298.132 33.432C299.071 33.432 299.668 33.8587 299.924 34.712C300.265 35.48 300.436 36.248 300.436 37.016V40.856C300.863 41.1973 301.289 41.4533 301.716 41.624C302.228 41.7093 302.655 41.88 302.996 42.136C303.423 42.3067 303.721 42.6053 303.892 43.032C304.148 43.4587 304.276 44.1413 304.276 45.08C304.276 45.6773 304.233 46.232 304.148 46.744C304.063 47.1707 304.02 47.5973 304.02 48.024C304.02 50.2427 304.191 52.4187 304.532 54.552C304.873 56.6853 305.556 58.6053 306.58 60.312C307.604 61.9333 309.012 63.2987 310.804 64.408C312.596 65.432 314.985 65.944 317.972 65.944C321.727 65.944 324.884 65.176 327.444 63.64C330.089 62.0187 332.265 60.2693 333.972 58.392C335.764 56.4293 337.172 54.68 338.196 53.144C339.22 51.5227 340.073 50.712 340.756 50.712C341.865 50.712 342.42 51.2667 342.42 52.376ZM297.492 46.744C297.492 46.4027 297.407 46.104 297.236 45.848C297.065 45.5067 296.98 45.208 296.98 44.952C296.98 44.6107 297.065 44.312 297.236 44.056C297.407 43.8 297.492 43.4587 297.492 43.032C297.492 42.776 297.407 42.6053 297.236 42.52C297.065 42.3493 296.98 42.1787 296.98 42.008C296.212 42.1787 295.401 42.904 294.548 44.184C293.78 45.464 293.012 46.9573 292.244 48.664C291.561 50.3707 291.007 52.12 290.58 53.912C290.153 55.6187 289.94 57.0267 289.94 58.136C289.94 58.7333 290.111 59.7147 290.452 61.08C290.793 62.4453 291.177 63.3413 291.604 63.768C293.055 60.7813 294.377 57.88 295.572 55.064C296.852 52.248 297.492 49.4747 297.492 46.744ZM372.795 62.104C372.795 63.5547 372.283 64.8347 371.259 65.944C370.32 66.968 369.083 67.864 367.547 68.632C366.096 69.3147 364.475 69.8693 362.683 70.296C360.891 70.7227 359.184 71.064 357.563 71.32C355.942 71.4907 354.491 71.6187 353.211 71.704C352.016 71.704 351.248 71.704 350.907 71.704C349.03 71.704 347.579 71.4053 346.555 70.808C345.531 70.2107 345.019 69.144 345.019 67.608C345.019 67.096 345.062 66.6693 345.147 66.328C345.232 65.9013 345.574 65.688 346.171 65.688C346.427 65.688 346.854 65.7733 347.451 65.944C348.048 66.0293 348.518 66.072 348.859 66.072C349.2 66.072 350.267 66.0293 352.059 65.944C353.936 65.7733 355.899 65.5173 357.947 65.176C360.08 64.8347 361.958 64.3653 363.579 63.768C365.286 63.0853 366.139 62.232 366.139 61.208C366.139 61.0373 365.243 60.5253 363.451 59.672C361.744 58.7333 359.142 57.1973 355.643 55.064C352.912 53.3573 350.992 51.6507 349.883 49.944C348.774 48.152 348.219 45.7627 348.219 42.776C348.219 40.8987 348.603 39.3627 349.371 38.168C350.224 36.9733 351.334 36.0347 352.699 35.352C354.15 34.6693 355.771 34.2 357.563 33.944C359.44 33.6027 361.403 33.432 363.451 33.432C363.622 33.432 364.134 33.5173 364.987 33.688C365.926 33.8587 366.907 34.1573 367.931 34.584C368.955 34.9253 369.851 35.3947 370.619 35.992C371.472 36.504 371.899 37.1013 371.899 37.784C371.899 37.9547 371.728 38.2107 371.387 38.552C371.131 38.8933 370.662 39.5333 369.979 40.472C369.723 40.3867 369.254 40.2587 368.571 40.088C367.974 39.9173 367.248 39.7467 366.395 39.576C365.627 39.32 364.816 39.1493 363.963 39.064C363.11 38.8933 362.427 38.808 361.915 38.808C359.696 38.808 357.904 39.2347 356.539 40.088C355.174 40.856 354.491 42.392 354.491 44.696C354.491 45.8053 354.918 46.8293 355.771 47.768C356.71 48.7067 357.862 49.6027 359.227 50.456C360.592 51.224 362.043 52.0347 363.579 52.888C365.2 53.656 366.694 54.5093 368.059 55.448C369.424 56.3867 370.534 57.4107 371.387 58.52C372.326 59.544 372.795 60.7387 372.795 62.104ZM417.665 21.144C416.556 22.424 414.977 23.704 412.929 24.984C410.881 26.1787 408.833 27.288 406.785 28.312C404.737 29.336 402.945 30.232 401.409 31C399.873 31.6827 399.105 32.152 399.105 32.408C399.105 32.664 399.276 33.432 399.617 34.712C399.958 35.992 400.342 37.528 400.769 39.32C401.281 41.0267 401.793 42.8187 402.305 44.696C402.817 46.5733 403.244 48.2373 403.585 49.688C403.756 50.5413 403.969 51.6507 404.225 53.016C404.481 54.3813 404.694 55.7467 404.865 57.112C405.121 58.4773 405.334 59.7147 405.505 60.824C405.676 61.848 405.761 62.4027 405.761 62.488C405.761 63.768 405.548 65.0907 405.121 66.456C404.694 67.8213 404.012 68.504 403.073 68.504C402.561 68.504 402.092 68.2907 401.665 67.864C401.238 67.4373 400.854 66.968 400.513 66.456C400.172 65.8587 399.916 65.304 399.745 64.792C399.574 64.28 399.489 63.896 399.489 63.64C399.489 63.4693 399.489 63.2133 399.489 62.872C399.574 62.5307 399.617 62.1467 399.617 61.72C399.617 60.0987 399.361 57.752 398.849 54.68C398.678 53.7413 398.337 52.2907 397.825 50.328C397.313 48.3653 396.801 46.36 396.289 44.312C395.692 41.9227 395.009 39.32 394.241 36.504C393.9 35.3093 393.686 34.712 393.601 34.712C393.004 34.712 391.98 35.096 390.529 35.864C389.164 36.5467 387.585 37.4427 385.793 38.552C384.001 39.576 382.124 40.728 380.161 42.008C378.198 43.2027 376.364 44.3547 374.657 45.464C372.95 46.488 371.5 47.384 370.305 48.152C369.025 48.8347 368.257 49.176 368.001 49.176C366.892 49.176 365.996 48.792 365.313 48.024C364.63 47.256 364.289 46.4027 364.289 45.464C364.289 44.952 365.014 44.2267 366.465 43.288C367.83 42.264 369.58 41.1547 371.713 39.96C373.761 38.7653 376.022 37.528 378.497 36.248C380.886 34.968 383.105 33.816 385.153 32.792C387.286 31.768 389.036 30.9147 390.401 30.232C391.852 29.5493 392.577 29.208 392.577 29.208C391.809 25.2827 391.169 21.784 390.657 18.712C390.23 16.0667 389.804 13.6347 389.377 11.416C389.036 9.19733 388.865 8.00266 388.865 7.83199C388.865 6.72266 389.078 5.912 389.505 5.39999C390.017 4.80266 390.572 4.504 391.169 4.504C392.108 4.504 392.705 5.144 392.961 6.424C393.9 11.032 394.753 15.128 395.521 18.712C396.374 22.296 397.185 25.1973 397.953 27.416C398.721 27.2453 400.044 26.776 401.921 26.008C403.798 25.1547 405.761 24.2587 407.809 23.32C409.857 22.3813 411.692 21.5707 413.313 20.888C415.02 20.12 416.001 19.736 416.257 19.736C416.769 19.736 417.068 19.9067 417.153 20.248C417.324 20.5893 417.494 20.888 417.665 21.144ZM460.204 65.56C460.289 65.7307 460.332 65.9867 460.332 66.328C460.332 66.84 459.948 67.608 459.18 68.632C458.924 68.9733 458.369 69.528 457.516 70.296C456.663 71.064 455.511 71.832 454.06 72.6C452.609 73.368 450.817 74.0507 448.684 74.648C446.636 75.2453 444.204 75.544 441.388 75.544C439.425 75.544 437.505 75.1173 435.628 74.264C433.751 73.3253 432.087 72.0027 430.636 70.296C429.185 68.504 427.991 66.328 427.052 63.768C426.113 61.1227 425.644 58.0507 425.644 54.552C425.644 51.224 426.071 48.1093 426.924 45.208C427.777 42.3067 428.844 39.7467 430.124 37.528C431.489 35.3093 432.983 33.56 434.604 32.28C436.225 31 437.804 30.36 439.34 30.36C440.705 30.36 442.071 30.6587 443.436 31.256C444.887 31.768 446.167 32.4507 447.276 33.304C448.471 34.1573 449.409 35.1387 450.092 36.248C450.775 37.272 451.116 38.3387 451.116 39.448C451.116 40.728 450.519 42.0507 449.324 43.416C448.215 44.7813 446.849 46.0613 445.228 47.256C443.607 48.3653 441.985 49.304 440.364 50.072C438.743 50.7547 437.463 51.096 436.524 51.096C436.012 51.096 435.543 50.8827 435.116 50.456C434.775 49.944 434.604 49.3467 434.604 48.664C434.604 47.4693 435.116 46.5307 436.14 45.848C437.249 45.1653 438.444 44.568 439.724 44.056C441.004 43.4587 442.156 42.776 443.18 42.008C444.289 41.24 444.844 40.1733 444.844 38.808C444.844 38.6373 444.631 38.2107 444.204 37.528C443.777 36.8453 442.625 36.504 440.748 36.504C439.895 36.504 438.913 37.016 437.804 38.04C436.695 38.9787 435.628 40.3013 434.604 42.008C433.58 43.6293 432.727 45.592 432.044 47.896C431.361 50.1147 431.02 52.5467 431.02 55.192C431.02 57.4107 431.404 59.416 432.172 61.208C433.025 63 434.092 64.536 435.372 65.816C436.652 67.0107 438.145 67.9493 439.852 68.632C441.559 69.3147 443.308 69.656 445.1 69.656C446.38 69.656 447.745 69.4 449.196 68.888C450.732 68.2907 452.14 67.6933 453.42 67.096C454.785 66.4133 455.937 65.816 456.876 65.304C457.9 64.7067 458.54 64.408 458.796 64.408C459.052 64.408 459.308 64.536 459.564 64.792C459.905 65.048 460.119 65.304 460.204 65.56ZM499.453 39.96C499.453 40.5573 499.197 41.0693 498.685 41.496C498.173 41.8373 497.576 42.136 496.893 42.392C496.21 42.648 495.528 42.8613 494.845 43.032C494.162 43.1173 493.608 43.16 493.181 43.16C491.901 43.16 491.048 43.0747 490.621 42.904C490.194 42.7333 489.853 42.648 489.597 42.648C487.464 42.648 485.757 42.8187 484.477 43.16C483.197 43.5013 482.173 44.056 481.405 44.824C480.722 45.592 480.253 46.5733 479.997 47.768C479.826 48.8773 479.741 50.2427 479.741 51.864C479.741 54.5947 479.826 56.7707 479.997 58.392C480.253 60.0133 480.466 61.336 480.637 62.36C480.893 63.384 481.106 64.1947 481.277 64.792C481.533 65.304 481.661 65.816 481.661 66.328C481.661 67.0107 481.277 67.736 480.509 68.504C479.826 69.272 479.186 69.656 478.589 69.656C477.565 69.656 476.626 68.76 475.773 66.968C475.005 65.0907 474.322 62.9147 473.725 60.44C473.213 57.88 472.786 55.3627 472.445 52.888C472.104 50.4133 471.933 48.536 471.933 47.256C471.933 45.8053 472.061 44.44 472.317 43.16C472.573 41.7947 472.914 40.6427 473.341 39.704C473.768 38.68 474.237 37.8693 474.749 37.272C475.261 36.6747 475.773 36.376 476.285 36.376C476.712 36.376 477.053 36.5467 477.309 36.888C477.565 37.144 477.778 37.4853 477.949 37.912C478.12 38.2533 478.29 38.5947 478.461 38.936C478.717 39.192 479.016 39.32 479.357 39.32C480.125 39.32 481.362 38.936 483.069 38.168C484.776 37.4 486.866 37.016 489.341 37.016C491.645 37.016 493.352 37.1013 494.461 37.272C495.656 37.3573 496.808 37.6133 497.917 38.04C498.173 38.1253 498.472 38.3387 498.813 38.68C499.24 38.936 499.453 39.3627 499.453 39.96Z" fill="black"/>
    </svg>
    